# xmcd
#
# Track frame offsets:
#	183
#	20045
#	38333
#	53313
#	76140
#	97210
#	113413
#	131093
#	150910
#	165463
#	189210
#	206400
#
# Disc length: 3000
#
# Revision: 2
# Processed by: cddbd v1.5.1PL0 Copyright (c) Steve Scherf et al.
# Submitted via: EasyCDDAExtractor 6.0.0.1
# Normalized: r1:DSETVAR1
#
DISCID=7f0bb60c
DTITLE=Various Artist - Jacaranda Hits - Third Album
DYEAR=1900
DGENRE=
TTITLE0=A-Ha - Crying In The Rain
TTITLE1=George Baker - So Lonely
TTITLE2=Gerard Joling - Tu Solo Tu
TTITLE3=Chris Rea - Looking For The Summer
TTITLE4=Thomas Anders - True Love
TTITLE5=Anny Schilder - The Power Of Love
TTITLE6=Mixed Emotions - Maria Maria
TTITLE7=BZN - I'll Miss You
TTITLE8=Octopus - I'm So In Love With You
TTITLE9=Julee Cruise - Falling
TTITLE10=Engelbert - Just For The Love Of You
TTITLE11=Staccatos - Cry To Me
EXTD=
EXTT0=
EXTT1=
EXTT2=
EXTT3=
EXTT4=
EXTT5=
EXTT6=
EXTT7=
EXTT8=
EXTT9=
EXTT10=
EXTT11=
PLAYORDER=
